<svg width="146" height="61" viewBox="0 0 146 61" fill="none" xmlns="http://www.w3.org/2000/svg">
<path d="M3.00098 16.693L26.717 3L50.434 16.693V44.079L26.717 57.772L3.00098 44.078V16.693Z" stroke="#3D0313" stroke-width="5" stroke-miterlimit="10"/>
<path d="M19.0923 42.4262L13.5923 39.6452V18.0762L19.0923 21.6702V42.4262Z" fill="#FB1446"/>
<path d="M26.7183 33.1263V26.5703L13.6543 18.0703L13.5913 24.6033L26.7183 33.1263Z" fill="#FB1446"/>
<path d="M34.1304 42.6942L39.8434 39.6442V18.0762L34.3434 21.6702L34.1304 42.6942Z" fill="#FB1446"/>
<path d="M26.7173 33.1262V26.5702L39.7853 18.0762L39.8483 24.6092L26.7173 33.1262Z" fill="#FB1446"/>
<path d="M76.2544 17.0469L78.4761 23.9717L80.6909 17.0469H83.8491V27H81.4429V24.6758L81.6753 19.918L79.269 27H77.6831L75.27 19.9111L75.5024 24.6758V27H73.103V17.0469H76.2544ZM91.1567 25.1406H87.8687L87.2944 27H84.731L88.3813 17.0469H90.6372L94.3149 27H91.7378L91.1567 25.1406ZM88.4429 23.2881H90.5825L89.5093 19.8359L88.4429 23.2881ZM97.603 27H95.2104V17.0469H97.603V27ZM107.583 27H105.198L101.67 20.8066V27H99.271V17.0469H101.67L105.191 23.2402V17.0469H107.583V27ZM111.5 25.1543H115.677V27H109.101V17.0469H111.5V25.1543ZM122.479 25.1406H119.191L118.617 27H116.053L119.704 17.0469H121.959L125.637 27H123.06L122.479 25.1406ZM119.765 23.2881H121.905L120.832 19.8359L119.765 23.2881ZM134.681 27H132.295L128.768 20.8066V27H126.369V17.0469H128.768L132.289 23.2402V17.0469H134.681V27ZM136.199 27V17.0469H139.405C140.284 17.0469 141.075 17.2474 141.777 17.6484C142.479 18.0449 143.026 18.6077 143.417 19.3369C143.814 20.0615 144.014 20.875 144.019 21.7773V22.2354C144.019 23.1468 143.825 23.9648 143.438 24.6895C143.055 25.4095 142.513 25.9746 141.811 26.3848C141.114 26.7904 140.334 26.9954 139.473 27H136.199ZM138.598 18.8994V25.1543H139.432C140.12 25.1543 140.649 24.9105 141.018 24.4229C141.387 23.9307 141.572 23.2015 141.572 22.2354V21.8047C141.572 20.8431 141.387 20.1185 141.018 19.6309C140.649 19.1432 140.111 18.8994 139.405 18.8994H138.598ZM80.9165 34.8994H77.9292V43H75.5298V34.8994H72.5972V33.0469H80.9165V34.8994ZM88.1079 38.7822H84.3345V41.1543H88.7915V43H81.9351V33.0469H88.8052V34.8994H84.3345V36.998H88.1079V38.7822ZM97.8218 39.6299C97.7899 40.3226 97.603 40.9355 97.2612 41.4688C96.9194 41.9974 96.4386 42.4076 95.8188 42.6992C95.2036 42.9909 94.4995 43.1367 93.7065 43.1367C92.3986 43.1367 91.3687 42.7106 90.6167 41.8584C89.8647 41.0062 89.4888 39.8031 89.4888 38.249V37.7568C89.4888 36.7816 89.6574 35.9294 89.9946 35.2002C90.3364 34.4665 90.8263 33.9014 91.4644 33.5049C92.1024 33.1038 92.8407 32.9033 93.6792 32.9033C94.8869 32.9033 95.8576 33.2223 96.5913 33.8604C97.325 34.4938 97.742 35.3688 97.8423 36.4854H95.4497C95.4315 35.8792 95.2788 35.444 94.9917 35.1797C94.7046 34.9154 94.2671 34.7832 93.6792 34.7832C93.0822 34.7832 92.6447 35.0065 92.3667 35.4531C92.0887 35.8997 91.9429 36.613 91.9292 37.5928V38.2969C91.9292 39.3587 92.0614 40.1175 92.3257 40.5732C92.5946 41.029 93.0549 41.2568 93.7065 41.2568C94.258 41.2568 94.6795 41.127 94.9712 40.8672C95.2629 40.6074 95.4178 40.195 95.436 39.6299H97.8218ZM107.276 43H104.89V38.8438H101.356V43H98.9565V33.0469H101.356V36.998H104.89V33.0469H107.276V43Z" fill="#3D0313"/>
<path d="M63.2754 8.02344V54.0234" stroke="#3D0313" stroke-width="2" stroke-miterlimit="10"/>
</svg>
