<svg width="1368" height="578" viewBox="0 0 1368 578" fill="none" xmlns="http://www.w3.org/2000/svg">
<rect x="0.5" y="0.5" width="1367" height="577" fill="white" stroke="#8F8F8F"/>
<path d="M59.0391 258.031C57.9844 259.294 56.4935 260.277 54.5664 260.98C52.6393 261.671 50.5039 262.016 48.1602 262.016C45.6992 262.016 43.5378 261.482 41.6758 260.414C39.8268 259.333 38.3945 257.771 37.3789 255.727C36.3763 253.682 35.862 251.28 35.8359 248.52V246.586C35.8359 243.747 36.3112 241.293 37.2617 239.223C38.2253 237.139 39.6055 235.551 41.4023 234.457C43.2122 233.35 45.3281 232.797 47.75 232.797C51.1224 232.797 53.7591 233.604 55.6602 235.219C57.5612 236.82 58.6875 239.158 59.0391 242.23H53.3359C53.0755 240.603 52.4961 239.411 51.5977 238.656C50.7122 237.901 49.4883 237.523 47.9258 237.523C45.9336 237.523 44.4167 238.272 43.375 239.77C42.3333 241.267 41.806 243.493 41.793 246.449V248.266C41.793 251.247 42.3594 253.5 43.4922 255.023C44.625 256.547 46.2852 257.309 48.4727 257.309C50.6732 257.309 52.2422 256.84 53.1797 255.902V251H47.8477V246.684H59.0391V258.031ZM73.1602 262.016C70.0612 262.016 67.5352 261.065 65.582 259.164C63.6419 257.263 62.6719 254.73 62.6719 251.566V251.02C62.6719 248.897 63.082 247.003 63.9023 245.336C64.7227 243.656 65.8815 242.367 67.3789 241.469C68.8893 240.557 70.6081 240.102 72.5352 240.102C75.4258 240.102 77.6979 241.013 79.3516 242.836C81.0182 244.659 81.8516 247.243 81.8516 250.59V252.895H68.3945C68.5768 254.275 69.1237 255.382 70.0352 256.215C70.9596 257.048 72.125 257.465 73.5312 257.465C75.7057 257.465 77.4049 256.677 78.6289 255.102L81.4023 258.207C80.556 259.405 79.4102 260.342 77.9648 261.02C76.5195 261.684 74.918 262.016 73.1602 262.016ZM72.5156 244.672C71.3958 244.672 70.4844 245.049 69.7812 245.805C69.0911 246.56 68.6484 247.641 68.4531 249.047H76.3047V248.598C76.2786 247.348 75.9401 246.384 75.2891 245.707C74.638 245.017 73.7135 244.672 72.5156 244.672ZM91.832 235.297V240.492H95.4453V244.633H91.832V255.18C91.832 255.961 91.9818 256.521 92.2812 256.859C92.5807 257.198 93.1536 257.367 94 257.367C94.625 257.367 95.1784 257.322 95.6602 257.23V261.508C94.5534 261.846 93.4141 262.016 92.2422 262.016C88.2839 262.016 86.2656 260.017 86.1875 256.02V244.633H83.1016V240.492H86.1875V235.297H91.832ZM105.348 235.297V240.492H108.961V244.633H105.348V255.18C105.348 255.961 105.497 256.521 105.797 256.859C106.096 257.198 106.669 257.367 107.516 257.367C108.141 257.367 108.694 257.322 109.176 257.23V261.508C108.069 261.846 106.93 262.016 105.758 262.016C101.799 262.016 99.7812 260.017 99.7031 256.02V244.633H96.6172V240.492H99.7031V235.297H105.348ZM118.062 261.625H112.398V240.492H118.062V261.625ZM112.066 235.023C112.066 234.177 112.346 233.48 112.906 232.934C113.479 232.387 114.254 232.113 115.23 232.113C116.194 232.113 116.962 232.387 117.535 232.934C118.108 233.48 118.395 234.177 118.395 235.023C118.395 235.883 118.102 236.586 117.516 237.133C116.943 237.68 116.181 237.953 115.23 237.953C114.28 237.953 113.512 237.68 112.926 237.133C112.353 236.586 112.066 235.883 112.066 235.023ZM127.926 240.492L128.102 242.934C129.612 241.046 131.637 240.102 134.176 240.102C136.415 240.102 138.082 240.759 139.176 242.074C140.27 243.389 140.829 245.355 140.855 247.973V261.625H135.211V248.109C135.211 246.911 134.951 246.046 134.43 245.512C133.909 244.965 133.043 244.691 131.832 244.691C130.243 244.691 129.052 245.368 128.258 246.723V261.625H122.613V240.492H127.926ZM144.332 250.902C144.332 247.66 145.1 245.049 146.637 243.07C148.186 241.091 150.27 240.102 152.887 240.102C155.204 240.102 157.008 240.896 158.297 242.484L158.531 240.492H163.648V260.922C163.648 262.771 163.225 264.379 162.379 265.746C161.546 267.113 160.367 268.155 158.844 268.871C157.32 269.587 155.536 269.945 153.492 269.945C151.943 269.945 150.432 269.633 148.961 269.008C147.49 268.396 146.376 267.602 145.621 266.625L148.121 263.188C149.527 264.763 151.233 265.551 153.238 265.551C154.736 265.551 155.901 265.147 156.734 264.34C157.568 263.546 157.984 262.413 157.984 260.941V259.809C156.682 261.28 154.97 262.016 152.848 262.016C150.309 262.016 148.251 261.026 146.676 259.047C145.113 257.055 144.332 254.418 144.332 251.137V250.902ZM149.977 251.312C149.977 253.227 150.361 254.73 151.129 255.824C151.897 256.905 152.952 257.445 154.293 257.445C156.012 257.445 157.242 256.801 157.984 255.512V246.625C157.229 245.336 156.012 244.691 154.332 244.691C152.978 244.691 151.91 245.245 151.129 246.352C150.361 247.458 149.977 249.112 149.977 251.312ZM428.141 318.625H422.477V297.492H428.141V318.625ZM422.145 292.023C422.145 291.177 422.424 290.48 422.984 289.934C423.557 289.387 424.332 289.113 425.309 289.113C426.272 289.113 427.04 289.387 427.613 289.934C428.186 290.48 428.473 291.177 428.473 292.023C428.473 292.883 428.18 293.586 427.594 294.133C427.021 294.68 426.259 294.953 425.309 294.953C424.358 294.953 423.59 294.68 423.004 294.133C422.431 293.586 422.145 292.883 422.145 292.023ZM438.004 297.492L438.18 299.934C439.69 298.046 441.715 297.102 444.254 297.102C446.493 297.102 448.16 297.759 449.254 299.074C450.348 300.389 450.908 302.355 450.934 304.973V318.625H445.289V305.109C445.289 303.911 445.029 303.046 444.508 302.512C443.987 301.965 443.121 301.691 441.91 301.691C440.322 301.691 439.13 302.368 438.336 303.723V318.625H432.691V297.492H438.004ZM463.141 311.73L467.066 297.492H472.965L465.836 318.625H460.445L453.316 297.492H459.215L463.141 311.73ZM484.918 319.016C481.819 319.016 479.293 318.065 477.34 316.164C475.4 314.263 474.43 311.73 474.43 308.566V308.02C474.43 305.897 474.84 304.003 475.66 302.336C476.48 300.656 477.639 299.367 479.137 298.469C480.647 297.557 482.366 297.102 484.293 297.102C487.184 297.102 489.456 298.013 491.109 299.836C492.776 301.659 493.609 304.243 493.609 307.59V309.895H480.152C480.335 311.275 480.882 312.382 481.793 313.215C482.717 314.048 483.883 314.465 485.289 314.465C487.464 314.465 489.163 313.677 490.387 312.102L493.16 315.207C492.314 316.405 491.168 317.342 489.723 318.02C488.277 318.684 486.676 319.016 484.918 319.016ZM484.273 301.672C483.154 301.672 482.242 302.049 481.539 302.805C480.849 303.56 480.406 304.641 480.211 306.047H488.062V305.598C488.036 304.348 487.698 303.384 487.047 302.707C486.396 302.017 485.471 301.672 484.273 301.672ZM508.277 312.785C508.277 312.095 507.932 311.555 507.242 311.164C506.565 310.76 505.471 310.402 503.961 310.09C498.935 309.035 496.422 306.9 496.422 303.684C496.422 301.809 497.197 300.246 498.746 298.996C500.309 297.733 502.346 297.102 504.859 297.102C507.542 297.102 509.684 297.733 511.285 298.996C512.9 300.259 513.707 301.9 513.707 303.918H508.062C508.062 303.111 507.802 302.447 507.281 301.926C506.76 301.392 505.947 301.125 504.84 301.125C503.889 301.125 503.154 301.34 502.633 301.77C502.112 302.199 501.852 302.746 501.852 303.41C501.852 304.035 502.145 304.543 502.73 304.934C503.329 305.311 504.332 305.643 505.738 305.93C507.145 306.203 508.329 306.516 509.293 306.867C512.275 307.961 513.766 309.855 513.766 312.551C513.766 314.478 512.939 316.04 511.285 317.238C509.632 318.423 507.496 319.016 504.879 319.016C503.108 319.016 501.533 318.703 500.152 318.078C498.785 317.44 497.711 316.574 496.93 315.48C496.148 314.374 495.758 313.182 495.758 311.906H501.109C501.161 312.909 501.533 313.677 502.223 314.211C502.913 314.745 503.837 315.012 504.996 315.012C506.077 315.012 506.891 314.81 507.438 314.406C507.997 313.99 508.277 313.449 508.277 312.785ZM524.176 292.297V297.492H527.789V301.633H524.176V312.18C524.176 312.961 524.326 313.521 524.625 313.859C524.924 314.198 525.497 314.367 526.344 314.367C526.969 314.367 527.522 314.322 528.004 314.23V318.508C526.897 318.846 525.758 319.016 524.586 319.016C520.628 319.016 518.609 317.017 518.531 313.02V301.633H515.445V297.492H518.531V292.297H524.176ZM536.227 297.492L536.402 299.855C537.9 298.02 539.924 297.102 542.477 297.102C545.198 297.102 547.066 298.176 548.082 300.324C549.566 298.176 551.682 297.102 554.43 297.102C556.721 297.102 558.427 297.772 559.547 299.113C560.667 300.441 561.227 302.447 561.227 305.129V318.625H555.562V305.148C555.562 303.951 555.328 303.078 554.859 302.531C554.391 301.971 553.564 301.691 552.379 301.691C550.686 301.691 549.514 302.499 548.863 304.113L548.883 318.625H543.238V305.168C543.238 303.944 542.997 303.059 542.516 302.512C542.034 301.965 541.214 301.691 540.055 301.691C538.453 301.691 537.294 302.355 536.578 303.684V318.625H530.934V297.492H536.227ZM575.309 319.016C572.21 319.016 569.684 318.065 567.73 316.164C565.79 314.263 564.82 311.73 564.82 308.566V308.02C564.82 305.897 565.23 304.003 566.051 302.336C566.871 300.656 568.03 299.367 569.527 298.469C571.038 297.557 572.757 297.102 574.684 297.102C577.574 297.102 579.846 298.013 581.5 299.836C583.167 301.659 584 304.243 584 307.59V309.895H570.543C570.725 311.275 571.272 312.382 572.184 313.215C573.108 314.048 574.273 314.465 575.68 314.465C577.854 314.465 579.553 313.677 580.777 312.102L583.551 315.207C582.704 316.405 581.559 317.342 580.113 318.02C578.668 318.684 577.066 319.016 575.309 319.016ZM574.664 301.672C573.544 301.672 572.633 302.049 571.93 302.805C571.24 303.56 570.797 304.641 570.602 306.047H578.453V305.598C578.427 304.348 578.089 303.384 577.438 302.707C576.786 302.017 575.862 301.672 574.664 301.672ZM592.418 297.492L592.594 299.934C594.104 298.046 596.129 297.102 598.668 297.102C600.908 297.102 602.574 297.759 603.668 299.074C604.762 300.389 605.322 302.355 605.348 304.973V318.625H599.703V305.109C599.703 303.911 599.443 303.046 598.922 302.512C598.401 301.965 597.535 301.691 596.324 301.691C594.736 301.691 593.544 302.368 592.75 303.723V318.625H587.105V297.492H592.418ZM616.402 292.297V297.492H620.016V301.633H616.402V312.18C616.402 312.961 616.552 313.521 616.852 313.859C617.151 314.198 617.724 314.367 618.57 314.367C619.195 314.367 619.749 314.322 620.23 314.23V318.508C619.124 318.846 617.984 319.016 616.812 319.016C612.854 319.016 610.836 317.017 610.758 313.02V301.633H607.672V297.492H610.758V292.297H616.402ZM623.453 315.852C623.453 314.953 623.753 314.224 624.352 313.664C624.964 313.104 625.725 312.824 626.637 312.824C627.561 312.824 628.323 313.104 628.922 313.664C629.534 314.224 629.84 314.953 629.84 315.852C629.84 316.737 629.54 317.46 628.941 318.02C628.342 318.566 627.574 318.84 626.637 318.84C625.712 318.84 624.951 318.566 624.352 318.02C623.753 317.46 623.453 316.737 623.453 315.852Z" fill="#FB1446"/>
<path d="M190.211 261.625C189.951 261.117 189.762 260.486 189.645 259.73C188.277 261.254 186.5 262.016 184.312 262.016C182.242 262.016 180.523 261.417 179.156 260.219C177.802 259.021 177.125 257.51 177.125 255.688C177.125 253.448 177.952 251.729 179.605 250.531C181.272 249.333 183.674 248.728 186.812 248.715H189.41V247.504C189.41 246.527 189.156 245.746 188.648 245.16C188.154 244.574 187.366 244.281 186.285 244.281C185.335 244.281 184.586 244.509 184.039 244.965C183.505 245.421 183.238 246.046 183.238 246.84H177.594C177.594 245.616 177.971 244.483 178.727 243.441C179.482 242.4 180.549 241.586 181.93 241C183.31 240.401 184.859 240.102 186.578 240.102C189.182 240.102 191.246 240.759 192.77 242.074C194.306 243.376 195.074 245.212 195.074 247.582V256.742C195.087 258.747 195.367 260.264 195.914 261.293V261.625H190.211ZM185.543 257.699C186.376 257.699 187.145 257.517 187.848 257.152C188.551 256.775 189.072 256.273 189.41 255.648V252.016H187.301C184.475 252.016 182.971 252.992 182.789 254.945L182.77 255.277C182.77 255.98 183.017 256.56 183.512 257.016C184.007 257.471 184.684 257.699 185.543 257.699ZM208.492 250.863C208.492 247.543 209.228 244.919 210.699 242.992C212.184 241.065 214.215 240.102 216.793 240.102C219.059 240.102 220.862 240.967 222.203 242.699L222.574 240.492H227.535V269.75H221.871V259.809C220.569 261.28 218.863 262.016 216.754 262.016C214.241 262.016 212.236 261.039 210.738 259.086C209.241 257.133 208.492 254.392 208.492 250.863ZM214.137 251.273C214.137 253.292 214.488 254.828 215.191 255.883C215.908 256.938 216.91 257.465 218.199 257.465C219.931 257.465 221.155 256.775 221.871 255.395V246.664C221.168 245.336 219.957 244.672 218.238 244.672C216.936 244.672 215.927 245.199 215.211 246.254C214.495 247.309 214.137 248.982 214.137 251.273ZM244.645 259.477C243.251 261.169 241.324 262.016 238.863 262.016C236.598 262.016 234.866 261.365 233.668 260.062C232.483 258.76 231.878 256.853 231.852 254.34V240.492H237.496V254.145C237.496 256.345 238.499 257.445 240.504 257.445C242.418 257.445 243.733 256.781 244.449 255.453V240.492H250.113V261.625H244.801L244.645 259.477ZM266.617 261.625C266.357 261.117 266.168 260.486 266.051 259.73C264.684 261.254 262.906 262.016 260.719 262.016C258.648 262.016 256.93 261.417 255.562 260.219C254.208 259.021 253.531 257.51 253.531 255.688C253.531 253.448 254.358 251.729 256.012 250.531C257.678 249.333 260.081 248.728 263.219 248.715H265.816V247.504C265.816 246.527 265.562 245.746 265.055 245.16C264.56 244.574 263.772 244.281 262.691 244.281C261.741 244.281 260.992 244.509 260.445 244.965C259.911 245.421 259.645 246.046 259.645 246.84H254C254 245.616 254.378 244.483 255.133 243.441C255.888 242.4 256.956 241.586 258.336 241C259.716 240.401 261.266 240.102 262.984 240.102C265.589 240.102 267.652 240.759 269.176 242.074C270.712 243.376 271.48 245.212 271.48 247.582V256.742C271.493 258.747 271.773 260.264 272.32 261.293V261.625H266.617ZM261.949 257.699C262.783 257.699 263.551 257.517 264.254 257.152C264.957 256.775 265.478 256.273 265.816 255.648V252.016H263.707C260.882 252.016 259.378 252.992 259.195 254.945L259.176 255.277C259.176 255.98 259.423 256.56 259.918 257.016C260.413 257.471 261.09 257.699 261.949 257.699ZM281.773 261.625H276.109V231.625H281.773V261.625ZM292.398 261.625H286.734V240.492H292.398V261.625ZM286.402 235.023C286.402 234.177 286.682 233.48 287.242 232.934C287.815 232.387 288.59 232.113 289.566 232.113C290.53 232.113 291.298 232.387 291.871 232.934C292.444 233.48 292.73 234.177 292.73 235.023C292.73 235.883 292.438 236.586 291.852 237.133C291.279 237.68 290.517 237.953 289.566 237.953C288.616 237.953 287.848 237.68 287.262 237.133C286.689 236.586 286.402 235.883 286.402 235.023ZM303.824 235.297V240.492H307.438V244.633H303.824V255.18C303.824 255.961 303.974 256.521 304.273 256.859C304.573 257.198 305.146 257.367 305.992 257.367C306.617 257.367 307.171 257.322 307.652 257.23V261.508C306.546 261.846 305.406 262.016 304.234 262.016C300.276 262.016 298.258 260.017 298.18 256.02V244.633H295.094V240.492H298.18V235.297H303.824ZM318.473 253.637L322.379 240.492H328.434L319.938 264.906L319.469 266.02C318.206 268.78 316.122 270.16 313.219 270.16C312.398 270.16 311.565 270.036 310.719 269.789V265.512L311.578 265.531C312.646 265.531 313.44 265.368 313.961 265.043C314.495 264.717 314.911 264.177 315.211 263.422L315.875 261.684L308.473 240.492H314.547L318.473 253.637ZM359 253.949L361.773 240.492H367.223L361.832 261.625H357.105L353.102 248.324L349.098 261.625H344.391L339 240.492H344.449L347.203 253.93L351.07 240.492H355.152L359 253.949ZM379.762 262.016C376.663 262.016 374.137 261.065 372.184 259.164C370.243 257.263 369.273 254.73 369.273 251.566V251.02C369.273 248.897 369.684 247.003 370.504 245.336C371.324 243.656 372.483 242.367 373.98 241.469C375.491 240.557 377.21 240.102 379.137 240.102C382.027 240.102 384.299 241.013 385.953 242.836C387.62 244.659 388.453 247.243 388.453 250.59V252.895H374.996C375.178 254.275 375.725 255.382 376.637 256.215C377.561 257.048 378.727 257.465 380.133 257.465C382.307 257.465 384.007 256.677 385.23 255.102L388.004 258.207C387.158 259.405 386.012 260.342 384.566 261.02C383.121 261.684 381.52 262.016 379.762 262.016ZM379.117 244.672C377.997 244.672 377.086 245.049 376.383 245.805C375.693 246.56 375.25 247.641 375.055 249.047H382.906V248.598C382.88 247.348 382.542 246.384 381.891 245.707C381.24 245.017 380.315 244.672 379.117 244.672ZM410.719 251.254C410.719 254.639 409.996 257.283 408.551 259.184C407.105 261.072 405.087 262.016 402.496 262.016C400.204 262.016 398.375 261.137 397.008 259.379L396.754 261.625H391.676V231.625H397.32V242.387C398.622 240.863 400.335 240.102 402.457 240.102C405.035 240.102 407.053 241.052 408.512 242.953C409.983 244.841 410.719 247.504 410.719 250.941V251.254ZM405.074 250.844C405.074 248.708 404.736 247.152 404.059 246.176C403.382 245.186 402.372 244.691 401.031 244.691C399.234 244.691 397.997 245.427 397.32 246.898V255.238C398.01 256.723 399.26 257.465 401.07 257.465C402.893 257.465 404.091 256.566 404.664 254.77C404.938 253.91 405.074 252.602 405.074 250.844ZM425.66 255.785C425.66 255.095 425.315 254.555 424.625 254.164C423.948 253.76 422.854 253.402 421.344 253.09C416.318 252.035 413.805 249.9 413.805 246.684C413.805 244.809 414.579 243.246 416.129 241.996C417.691 240.733 419.729 240.102 422.242 240.102C424.924 240.102 427.066 240.733 428.668 241.996C430.283 243.259 431.09 244.9 431.09 246.918H425.445C425.445 246.111 425.185 245.447 424.664 244.926C424.143 244.392 423.329 244.125 422.223 244.125C421.272 244.125 420.536 244.34 420.016 244.77C419.495 245.199 419.234 245.746 419.234 246.41C419.234 247.035 419.527 247.543 420.113 247.934C420.712 248.311 421.715 248.643 423.121 248.93C424.527 249.203 425.712 249.516 426.676 249.867C429.658 250.961 431.148 252.855 431.148 255.551C431.148 257.478 430.322 259.04 428.668 260.238C427.014 261.423 424.879 262.016 422.262 262.016C420.491 262.016 418.915 261.703 417.535 261.078C416.168 260.44 415.094 259.574 414.312 258.48C413.531 257.374 413.141 256.182 413.141 254.906H418.492C418.544 255.909 418.915 256.677 419.605 257.211C420.296 257.745 421.22 258.012 422.379 258.012C423.46 258.012 424.273 257.81 424.82 257.406C425.38 256.99 425.66 256.449 425.66 255.785ZM440.758 261.625H435.094V240.492H440.758V261.625ZM434.762 235.023C434.762 234.177 435.042 233.48 435.602 232.934C436.174 232.387 436.949 232.113 437.926 232.113C438.889 232.113 439.658 232.387 440.23 232.934C440.803 233.48 441.09 234.177 441.09 235.023C441.09 235.883 440.797 236.586 440.211 237.133C439.638 237.68 438.876 237.953 437.926 237.953C436.975 237.953 436.207 237.68 435.621 237.133C435.048 236.586 434.762 235.883 434.762 235.023ZM452.184 235.297V240.492H455.797V244.633H452.184V255.18C452.184 255.961 452.333 256.521 452.633 256.859C452.932 257.198 453.505 257.367 454.352 257.367C454.977 257.367 455.53 257.322 456.012 257.23V261.508C454.905 261.846 453.766 262.016 452.594 262.016C448.635 262.016 446.617 260.017 446.539 256.02V244.633H443.453V240.492H446.539V235.297H452.184ZM468.668 262.016C465.569 262.016 463.043 261.065 461.09 259.164C459.15 257.263 458.18 254.73 458.18 251.566V251.02C458.18 248.897 458.59 247.003 459.41 245.336C460.23 243.656 461.389 242.367 462.887 241.469C464.397 240.557 466.116 240.102 468.043 240.102C470.934 240.102 473.206 241.013 474.859 242.836C476.526 244.659 477.359 247.243 477.359 250.59V252.895H463.902C464.085 254.275 464.632 255.382 465.543 256.215C466.467 257.048 467.633 257.465 469.039 257.465C471.214 257.465 472.913 256.677 474.137 255.102L476.91 258.207C476.064 259.405 474.918 260.342 473.473 261.02C472.027 261.684 470.426 262.016 468.668 262.016ZM468.023 244.672C466.904 244.672 465.992 245.049 465.289 245.805C464.599 246.56 464.156 247.641 463.961 249.047H471.812V248.598C471.786 247.348 471.448 246.384 470.797 245.707C470.146 245.017 469.221 244.672 468.023 244.672ZM496.5 261.625H490.836V240.492H496.5V261.625ZM490.504 235.023C490.504 234.177 490.784 233.48 491.344 232.934C491.917 232.387 492.691 232.113 493.668 232.113C494.632 232.113 495.4 232.387 495.973 232.934C496.546 233.48 496.832 234.177 496.832 235.023C496.832 235.883 496.539 236.586 495.953 237.133C495.38 237.68 494.618 237.953 493.668 237.953C492.717 237.953 491.949 237.68 491.363 237.133C490.79 236.586 490.504 235.883 490.504 235.023ZM512.613 255.785C512.613 255.095 512.268 254.555 511.578 254.164C510.901 253.76 509.807 253.402 508.297 253.09C503.271 252.035 500.758 249.9 500.758 246.684C500.758 244.809 501.533 243.246 503.082 241.996C504.645 240.733 506.682 240.102 509.195 240.102C511.878 240.102 514.02 240.733 515.621 241.996C517.236 243.259 518.043 244.9 518.043 246.918H512.398C512.398 246.111 512.138 245.447 511.617 244.926C511.096 244.392 510.283 244.125 509.176 244.125C508.225 244.125 507.49 244.34 506.969 244.77C506.448 245.199 506.188 245.746 506.188 246.41C506.188 247.035 506.48 247.543 507.066 247.934C507.665 248.311 508.668 248.643 510.074 248.93C511.48 249.203 512.665 249.516 513.629 249.867C516.611 250.961 518.102 252.855 518.102 255.551C518.102 257.478 517.275 259.04 515.621 260.238C513.967 261.423 511.832 262.016 509.215 262.016C507.444 262.016 505.868 261.703 504.488 261.078C503.121 260.44 502.047 259.574 501.266 258.48C500.484 257.374 500.094 256.182 500.094 254.906H505.445C505.497 255.909 505.868 256.677 506.559 257.211C507.249 257.745 508.173 258.012 509.332 258.012C510.413 258.012 511.227 257.81 511.773 257.406C512.333 256.99 512.613 256.449 512.613 255.785ZM536.91 240.492L537.086 242.934C538.596 241.046 540.621 240.102 543.16 240.102C545.4 240.102 547.066 240.759 548.16 242.074C549.254 243.389 549.814 245.355 549.84 247.973V261.625H544.195V248.109C544.195 246.911 543.935 246.046 543.414 245.512C542.893 244.965 542.027 244.691 540.816 244.691C539.228 244.691 538.036 245.368 537.242 246.723V261.625H531.598V240.492H536.91ZM553.258 250.863C553.258 248.767 553.661 246.898 554.469 245.258C555.276 243.617 556.435 242.348 557.945 241.449C559.469 240.551 561.233 240.102 563.238 240.102C566.09 240.102 568.414 240.974 570.211 242.719C572.021 244.464 573.03 246.833 573.238 249.828L573.277 251.273C573.277 254.516 572.372 257.12 570.562 259.086C568.753 261.039 566.324 262.016 563.277 262.016C560.23 262.016 557.796 261.039 555.973 259.086C554.163 257.133 553.258 254.477 553.258 251.117V250.863ZM558.902 251.273C558.902 253.279 559.28 254.815 560.035 255.883C560.79 256.938 561.871 257.465 563.277 257.465C564.645 257.465 565.712 256.944 566.48 255.902C567.249 254.848 567.633 253.168 567.633 250.863C567.633 248.897 567.249 247.374 566.48 246.293C565.712 245.212 564.632 244.672 563.238 244.672C561.858 244.672 560.79 245.212 560.035 246.293C559.28 247.361 558.902 249.021 558.902 251.273ZM583.512 235.297V240.492H587.125V244.633H583.512V255.18C583.512 255.961 583.661 256.521 583.961 256.859C584.26 257.198 584.833 257.367 585.68 257.367C586.305 257.367 586.858 257.322 587.34 257.23V261.508C586.233 261.846 585.094 262.016 583.922 262.016C579.964 262.016 577.945 260.017 577.867 256.02V244.633H574.781V240.492H577.867V235.297H583.512ZM48.4141 318.625C48.1536 318.117 47.9648 317.486 47.8477 316.73C46.4805 318.254 44.7031 319.016 42.5156 319.016C40.4453 319.016 38.7266 318.417 37.3594 317.219C36.0052 316.021 35.3281 314.51 35.3281 312.688C35.3281 310.448 36.1549 308.729 37.8086 307.531C39.4753 306.333 41.8776 305.728 45.0156 305.715H47.6133V304.504C47.6133 303.527 47.3594 302.746 46.8516 302.16C46.3568 301.574 45.569 301.281 44.4883 301.281C43.5378 301.281 42.7891 301.509 42.2422 301.965C41.7083 302.421 41.4414 303.046 41.4414 303.84H35.7969C35.7969 302.616 36.1745 301.483 36.9297 300.441C37.6849 299.4 38.7526 298.586 40.1328 298C41.513 297.401 43.0625 297.102 44.7812 297.102C47.3854 297.102 49.4492 297.759 50.9727 299.074C52.5091 300.376 53.2773 302.212 53.2773 304.582V313.742C53.2904 315.747 53.5703 317.264 54.1172 318.293V318.625H48.4141ZM43.7461 314.699C44.5794 314.699 45.3477 314.517 46.0508 314.152C46.7539 313.775 47.2747 313.273 47.6133 312.648V309.016H45.5039C42.6784 309.016 41.1745 309.992 40.9922 311.945L40.9727 312.277C40.9727 312.98 41.2201 313.56 41.7148 314.016C42.2096 314.471 42.8867 314.699 43.7461 314.699ZM62.8086 297.492L62.9844 299.934C64.4948 298.046 66.5195 297.102 69.0586 297.102C71.2982 297.102 72.9648 297.759 74.0586 299.074C75.1523 300.389 75.7122 302.355 75.7383 304.973V318.625H70.0938V305.109C70.0938 303.911 69.8333 303.046 69.3125 302.512C68.7917 301.965 67.9258 301.691 66.7148 301.691C65.1263 301.691 63.9349 302.368 63.1406 303.723V318.625H57.4961V297.492H62.8086ZM99.7227 319.016C96.6237 319.016 94.0977 318.065 92.1445 316.164C90.2044 314.263 89.2344 311.73 89.2344 308.566V308.02C89.2344 305.897 89.6445 304.003 90.4648 302.336C91.2852 300.656 92.444 299.367 93.9414 298.469C95.4518 297.557 97.1706 297.102 99.0977 297.102C101.988 297.102 104.26 298.013 105.914 299.836C107.581 301.659 108.414 304.243 108.414 307.59V309.895H94.957C95.1393 311.275 95.6862 312.382 96.5977 313.215C97.5221 314.048 98.6875 314.465 100.094 314.465C102.268 314.465 103.967 313.677 105.191 312.102L107.965 315.207C107.118 316.405 105.973 317.342 104.527 318.02C103.082 318.684 101.48 319.016 99.7227 319.016ZM99.0781 301.672C97.9583 301.672 97.0469 302.049 96.3438 302.805C95.6536 303.56 95.2109 304.641 95.0156 306.047H102.867V305.598C102.841 304.348 102.503 303.384 101.852 302.707C101.201 302.017 100.276 301.672 99.0781 301.672ZM119.684 303.801L123.238 297.492H129.273L123.258 307.844L129.527 318.625H123.473L119.703 311.984L115.953 318.625H109.879L116.148 307.844L110.152 297.492H116.207L119.684 303.801ZM151.012 308.254C151.012 311.509 150.27 314.12 148.785 316.086C147.314 318.039 145.322 319.016 142.809 319.016C140.673 319.016 138.948 318.273 137.633 316.789V326.75H131.988V297.492H137.223L137.418 299.562C138.785 297.922 140.569 297.102 142.77 297.102C145.374 297.102 147.398 298.065 148.844 299.992C150.289 301.919 151.012 304.576 151.012 307.961V308.254ZM145.367 307.844C145.367 305.878 145.016 304.361 144.312 303.293C143.622 302.225 142.613 301.691 141.285 301.691C139.514 301.691 138.297 302.368 137.633 303.723V312.375C138.323 313.768 139.553 314.465 141.324 314.465C144.02 314.465 145.367 312.258 145.367 307.844ZM164.254 319.016C161.155 319.016 158.629 318.065 156.676 316.164C154.736 314.263 153.766 311.73 153.766 308.566V308.02C153.766 305.897 154.176 304.003 154.996 302.336C155.816 300.656 156.975 299.367 158.473 298.469C159.983 297.557 161.702 297.102 163.629 297.102C166.52 297.102 168.792 298.013 170.445 299.836C172.112 301.659 172.945 304.243 172.945 307.59V309.895H159.488C159.671 311.275 160.217 312.382 161.129 313.215C162.053 314.048 163.219 314.465 164.625 314.465C166.799 314.465 168.499 313.677 169.723 312.102L172.496 315.207C171.65 316.405 170.504 317.342 169.059 318.02C167.613 318.684 166.012 319.016 164.254 319.016ZM163.609 301.672C162.49 301.672 161.578 302.049 160.875 302.805C160.185 303.56 159.742 304.641 159.547 306.047H167.398V305.598C167.372 304.348 167.034 303.384 166.383 302.707C165.732 302.017 164.807 301.672 163.609 301.672ZM181.363 297.492L181.539 299.934C183.049 298.046 185.074 297.102 187.613 297.102C189.853 297.102 191.52 297.759 192.613 299.074C193.707 300.389 194.267 302.355 194.293 304.973V318.625H188.648V305.109C188.648 303.911 188.388 303.046 187.867 302.512C187.346 301.965 186.48 301.691 185.27 301.691C183.681 301.691 182.49 302.368 181.695 303.723V318.625H176.051V297.492H181.363ZM210.035 312.785C210.035 312.095 209.69 311.555 209 311.164C208.323 310.76 207.229 310.402 205.719 310.09C200.693 309.035 198.18 306.9 198.18 303.684C198.18 301.809 198.954 300.246 200.504 298.996C202.066 297.733 204.104 297.102 206.617 297.102C209.299 297.102 211.441 297.733 213.043 298.996C214.658 300.259 215.465 301.9 215.465 303.918H209.82C209.82 303.111 209.56 302.447 209.039 301.926C208.518 301.392 207.704 301.125 206.598 301.125C205.647 301.125 204.911 301.34 204.391 301.77C203.87 302.199 203.609 302.746 203.609 303.41C203.609 304.035 203.902 304.543 204.488 304.934C205.087 305.311 206.09 305.643 207.496 305.93C208.902 306.203 210.087 306.516 211.051 306.867C214.033 307.961 215.523 309.855 215.523 312.551C215.523 314.478 214.697 316.04 213.043 317.238C211.389 318.423 209.254 319.016 206.637 319.016C204.866 319.016 203.29 318.703 201.91 318.078C200.543 317.44 199.469 316.574 198.688 315.48C197.906 314.374 197.516 313.182 197.516 311.906H202.867C202.919 312.909 203.29 313.677 203.98 314.211C204.671 314.745 205.595 315.012 206.754 315.012C207.835 315.012 208.648 314.81 209.195 314.406C209.755 313.99 210.035 313.449 210.035 312.785ZM228.902 319.016C225.803 319.016 223.277 318.065 221.324 316.164C219.384 314.263 218.414 311.73 218.414 308.566V308.02C218.414 305.897 218.824 304.003 219.645 302.336C220.465 300.656 221.624 299.367 223.121 298.469C224.632 297.557 226.35 297.102 228.277 297.102C231.168 297.102 233.44 298.013 235.094 299.836C236.76 301.659 237.594 304.243 237.594 307.59V309.895H224.137C224.319 311.275 224.866 312.382 225.777 313.215C226.702 314.048 227.867 314.465 229.273 314.465C231.448 314.465 233.147 313.677 234.371 312.102L237.145 315.207C236.298 316.405 235.152 317.342 233.707 318.02C232.262 318.684 230.66 319.016 228.902 319.016ZM228.258 301.672C227.138 301.672 226.227 302.049 225.523 302.805C224.833 303.56 224.391 304.641 224.195 306.047H232.047V305.598C232.021 304.348 231.682 303.384 231.031 302.707C230.38 302.017 229.456 301.672 228.258 301.672ZM262.652 302.785C261.884 302.681 261.207 302.629 260.621 302.629C258.486 302.629 257.086 303.352 256.422 304.797V318.625H250.777V297.492H256.109L256.266 300.012C257.398 298.072 258.967 297.102 260.973 297.102C261.598 297.102 262.184 297.186 262.73 297.355L262.652 302.785ZM277.047 318.625C276.786 318.117 276.598 317.486 276.48 316.73C275.113 318.254 273.336 319.016 271.148 319.016C269.078 319.016 267.359 318.417 265.992 317.219C264.638 316.021 263.961 314.51 263.961 312.688C263.961 310.448 264.788 308.729 266.441 307.531C268.108 306.333 270.51 305.728 273.648 305.715H276.246V304.504C276.246 303.527 275.992 302.746 275.484 302.16C274.99 301.574 274.202 301.281 273.121 301.281C272.171 301.281 271.422 301.509 270.875 301.965C270.341 302.421 270.074 303.046 270.074 303.84H264.43C264.43 302.616 264.807 301.483 265.562 300.441C266.318 299.4 267.385 298.586 268.766 298C270.146 297.401 271.695 297.102 273.414 297.102C276.018 297.102 278.082 297.759 279.605 299.074C281.142 300.376 281.91 302.212 281.91 304.582V313.742C281.923 315.747 282.203 317.264 282.75 318.293V318.625H277.047ZM272.379 314.699C273.212 314.699 273.98 314.517 274.684 314.152C275.387 313.775 275.908 313.273 276.246 312.648V309.016H274.137C271.311 309.016 269.807 309.992 269.625 311.945L269.605 312.277C269.605 312.98 269.853 313.56 270.348 314.016C270.842 314.471 271.52 314.699 272.379 314.699ZM293.004 292.297V297.492H296.617V301.633H293.004V312.18C293.004 312.961 293.154 313.521 293.453 313.859C293.753 314.198 294.326 314.367 295.172 314.367C295.797 314.367 296.35 314.322 296.832 314.23V318.508C295.725 318.846 294.586 319.016 293.414 319.016C289.456 319.016 287.438 317.017 287.359 313.02V301.633H284.273V297.492H287.359V292.297H293.004ZM305.27 299.797C306.767 298 308.648 297.102 310.914 297.102C315.497 297.102 317.822 299.764 317.887 305.09V318.625H312.242V305.246C312.242 304.035 311.982 303.143 311.461 302.57C310.94 301.984 310.074 301.691 308.863 301.691C307.21 301.691 306.012 302.329 305.27 303.605V318.625H299.625V288.625H305.27V299.797ZM331.871 319.016C328.772 319.016 326.246 318.065 324.293 316.164C322.353 314.263 321.383 311.73 321.383 308.566V308.02C321.383 305.897 321.793 304.003 322.613 302.336C323.434 300.656 324.592 299.367 326.09 298.469C327.6 297.557 329.319 297.102 331.246 297.102C334.137 297.102 336.409 298.013 338.062 299.836C339.729 301.659 340.562 304.243 340.562 307.59V309.895H327.105C327.288 311.275 327.835 312.382 328.746 313.215C329.671 314.048 330.836 314.465 332.242 314.465C334.417 314.465 336.116 313.677 337.34 312.102L340.113 315.207C339.267 316.405 338.121 317.342 336.676 318.02C335.23 318.684 333.629 319.016 331.871 319.016ZM331.227 301.672C330.107 301.672 329.195 302.049 328.492 302.805C327.802 303.56 327.359 304.641 327.164 306.047H335.016V305.598C334.99 304.348 334.651 303.384 334 302.707C333.349 302.017 332.424 301.672 331.227 301.672ZM355.66 302.785C354.892 302.681 354.215 302.629 353.629 302.629C351.493 302.629 350.094 303.352 349.43 304.797V318.625H343.785V297.492H349.117L349.273 300.012C350.406 298.072 351.975 297.102 353.98 297.102C354.605 297.102 355.191 297.186 355.738 297.355L355.66 302.785ZM380.602 318.625C380.341 318.117 380.152 317.486 380.035 316.73C378.668 318.254 376.891 319.016 374.703 319.016C372.633 319.016 370.914 318.417 369.547 317.219C368.193 316.021 367.516 314.51 367.516 312.688C367.516 310.448 368.342 308.729 369.996 307.531C371.663 306.333 374.065 305.728 377.203 305.715H379.801V304.504C379.801 303.527 379.547 302.746 379.039 302.16C378.544 301.574 377.757 301.281 376.676 301.281C375.725 301.281 374.977 301.509 374.43 301.965C373.896 302.421 373.629 303.046 373.629 303.84H367.984C367.984 302.616 368.362 301.483 369.117 300.441C369.872 299.4 370.94 298.586 372.32 298C373.701 297.401 375.25 297.102 376.969 297.102C379.573 297.102 381.637 297.759 383.16 299.074C384.697 300.376 385.465 302.212 385.465 304.582V313.742C385.478 315.747 385.758 317.264 386.305 318.293V318.625H380.602ZM375.934 314.699C376.767 314.699 377.535 314.517 378.238 314.152C378.941 313.775 379.462 313.273 379.801 312.648V309.016H377.691C374.866 309.016 373.362 309.992 373.18 311.945L373.16 312.277C373.16 312.98 373.408 313.56 373.902 314.016C374.397 314.471 375.074 314.699 375.934 314.699ZM394.996 297.492L395.172 299.934C396.682 298.046 398.707 297.102 401.246 297.102C403.486 297.102 405.152 297.759 406.246 299.074C407.34 300.389 407.9 302.355 407.926 304.973V318.625H402.281V305.109C402.281 303.911 402.021 303.046 401.5 302.512C400.979 301.965 400.113 301.691 398.902 301.691C397.314 301.691 396.122 302.368 395.328 303.723V318.625H389.684V297.492H394.996Z" fill="#464646"/>
<path d="M725.714 362.518H799.182L792.732 372.824C785.466 384.435 783.176 398.481 786.377 411.8L786.645 412.911C789.064 422.974 781.437 432.651 771.088 432.651H755.641C745.543 432.651 738.146 423.143 740.629 413.355V413.355C744.228 399.174 741.351 384.127 732.774 372.274L725.714 362.518Z" fill="#C4C4C4"/>
<path opacity="0.13" d="M1173.6 319.093L1010.41 404.934L847.225 319.093V147.411L1010.41 61.5703L1173.6 147.411V319.093Z" fill="#9E9E9E"/>
<path opacity="0.44" d="M1368 398.131L1225.39 473.606L1082.78 398.131V247.18L1225.39 171.705L1368 247.18V398.131Z" fill="#E8E8E8"/>
<path opacity="0.36" d="M1368 245.56L1213.33 327.19L1058.65 245.56V82.3001L1213.33 0.669922L1368 82.3001V245.56Z" fill="#EEEEEE"/>
<path d="M1319.02 432.652H711.244V453.997H1319.02V432.652Z" fill="#D4D4D4"/>
<path d="M1319.02 438.334H710.712V459.995H1319.02V438.334Z" fill="#D4D4D4"/>
<path d="M1318.5 438.76H711.231V459.565H1318.5V438.76Z" stroke="white"/>
<path d="M1255.25 429.67H1188.83V435.446H1255.25V429.67Z" fill="#A2A2A2"/>
<path d="M955.838 252.752L955.841 222.37C955.841 222.37 946.145 203.164 930.579 213.863C915.013 224.562 837.414 320.803 837.414 320.803L891.981 320.805L955.838 252.752Z" fill="#3B3B3B"/>
<path d="M1169.85 324.549C1169.85 324.549 1194.93 293.288 1214.34 312.149C1214.34 312.804 1240.23 404.531 1240.23 404.531L1198.32 411.742L1169.85 324.549Z" fill="#3B3B3B"/>
<path d="M1074.31 252.753L1074.31 222.373C1074.31 222.373 1085.86 205.534 1101.42 216.235C1116.99 226.937 1214.92 311.977 1214.92 311.977L1175.15 332.66L1074.31 252.753Z" fill="#3B3B3B"/>
<path d="M1222.85 397.9C1251.44 397.9 1252.88 428.226 1252.88 428.226H1191.2C1191.2 428.226 1194.26 397.9 1222.85 397.9Z" fill="#F3BE97"/>
<path d="M935.673 210.17H1095C1097.23 210.17 1099.38 210.981 1100.96 212.425C1102.54 213.869 1103.43 215.827 1103.43 217.869V369.018H926.304V218.724C926.304 216.456 927.291 214.28 929.048 212.675C930.805 211.071 933.188 210.17 935.673 210.17V210.17Z" fill="#3B3B3B"/>
<path d="M988.223 191.395H1040.17V210.143L1027.49 220.942L1013.55 216.59L999.606 220.942L988.223 210.143V191.395Z" fill="url(#paint0_linear)"/>
<path d="M1143.61 422.449H886.122C885.605 422.449 885.185 422.832 885.185 423.305V431.703C885.185 432.175 885.605 432.558 886.122 432.558H1143.61C1144.13 432.558 1144.55 432.175 1144.55 431.703V423.305C1144.55 422.832 1144.13 422.449 1143.61 422.449Z" fill="#3D0313"/>
<path d="M1222.68 410.172C1245.41 410.172 1246.55 432.555 1246.55 432.555H1197.53C1197.53 432.555 1199.96 410.172 1222.68 410.172Z" fill="#A1062E"/>
<path d="M891.981 310.986L933.237 393.72H891.981L837.416 320.808L891.981 310.986Z" fill="#3B3B3B"/>
<path d="M1142.68 265.045H887.059C886.024 265.045 885.185 265.811 885.185 266.756V420.738C885.185 421.683 886.024 422.449 887.059 422.449H1142.68C1143.71 422.449 1144.55 421.683 1144.55 420.738V266.756C1144.55 265.811 1143.71 265.045 1142.68 265.045Z" fill="#A1062E"/>
<path d="M1027.52 351.686L1014.87 358.906L1002.22 351.686V337.245L1014.87 330.025L1027.52 337.245V351.686Z" fill="#A2A2A2"/>
<path d="M864.626 422.449H810.856V432.558H864.626V422.449Z" fill="#3B3B3B"/>
<path d="M1070.22 133.635C1070.22 133.635 1082.08 133.174 1082.08 146.632C1082.08 160.089 1070.22 159.628 1070.22 159.628V133.635Z" fill="#E9B289"/>
<path d="M958.724 133.635C958.724 133.635 946.863 133.174 946.863 146.632C946.863 160.089 958.724 159.628 958.724 159.628V133.635Z" fill="#E9B289"/>
<path d="M962.618 81.6465H1067.12C1068.36 81.6465 1069.55 82.0971 1070.43 82.8993C1071.31 83.7014 1071.8 84.7893 1071.8 85.9237V176.107C1071.8 179.253 1071.12 182.368 1069.8 185.274C1068.48 188.18 1066.55 190.82 1064.12 193.044C1061.68 195.269 1058.79 197.033 1055.61 198.237C1052.42 199.44 1049.01 200.06 1045.57 200.06H983.228C976.52 200.06 970.086 197.627 965.342 193.295C960.598 188.963 957.933 183.089 957.933 176.963V85.9237C957.933 84.7893 958.427 83.7014 959.305 82.8993C960.184 82.0971 961.375 81.6465 962.618 81.6465V81.6465Z" fill="#F3BE97"/>
<path d="M1026.73 174.117C1026.73 174.117 1024.53 177.6 1013.25 177.6C1001.97 177.6 1000.32 174.117 1000.32 174.117" stroke="#3D0313" stroke-width="2"/>
<path d="M986.401 149.967C989.021 149.967 991.145 148.027 991.145 145.635C991.145 143.242 989.021 141.303 986.401 141.303C983.781 141.303 981.657 143.242 981.657 145.635C981.657 148.027 983.781 149.967 986.401 149.967Z" fill="#202020"/>
<path d="M1040.17 149.967C1042.79 149.967 1044.91 148.027 1044.91 145.635C1044.91 143.242 1042.79 141.303 1040.17 141.303C1037.55 141.303 1035.43 143.242 1035.43 145.635C1035.43 148.027 1037.55 149.967 1040.17 149.967Z" fill="#202020"/>
<path d="M961.681 61.4316H1068.05C1069.05 61.4316 1070 61.7921 1070.7 62.4339C1071.4 63.0756 1071.8 63.9459 1071.8 64.8534V96.0892H957.933V64.8534C957.933 63.9459 958.328 63.0756 959.031 62.4339C959.734 61.7921 960.687 61.4316 961.681 61.4316V61.4316Z" fill="#3D0313"/>
<path d="M1071.8 94.6426H1057.57V111.971H1071.8V94.6426Z" fill="#3D0313"/>
<path d="M972.167 94.6426H957.933V111.971H972.167V94.6426Z" fill="#3D0313"/>
<path d="M1012.64 163.887L1000.54 172.325H1012.64V163.887Z" fill="#3B3B3B"/>
<path d="M1018.82 182.263L1007.75 182.263L1013.75 185.618L1018.82 182.263Z" fill="#3B3B3B"/>
<path d="M1014.49 163.887L1026.59 172.325H1014.49V163.887Z" fill="#3B3B3B"/>
<path d="M1225.2 408.006H1220.46V415.226H1225.2V408.006Z" fill="white"/>
<path d="M1019.61 239.051C1021.36 239.051 1022.77 237.758 1022.77 236.163C1022.77 234.568 1021.36 233.275 1019.61 233.275C1017.86 233.275 1016.45 234.568 1016.45 236.163C1016.45 237.758 1017.86 239.051 1019.61 239.051Z" fill="white"/>
<path d="M1014.08 216.666V255.656" stroke="white"/>
<path d="M1040.09 210.145L1013.53 216.375L1028.81 243.177L1040.09 210.145Z" fill="white"/>
<path d="M988.223 210.145L1014.79 216.375L999.502 243.179L988.223 210.145Z" fill="white"/>
<path d="M977.704 125.689H995.1" stroke="#202020" stroke-width="2"/>
<path d="M1031.47 125.689H1048.87" stroke="#202020" stroke-width="2"/>
<path d="M1075.46 149.873C1075.46 149.873 1079.79 164.33 1070.49 172.204C1061.18 180.079 1048.41 177.936 1048.41 177.936" stroke="#707070" stroke-width="5"/>
<path d="M1045.26 182.695C1048.1 182.695 1050.41 180.589 1050.41 177.99C1050.41 175.392 1048.1 173.285 1045.26 173.285C1042.41 173.285 1040.1 175.392 1040.1 177.99C1040.1 180.589 1042.41 182.695 1045.26 182.695Z" fill="#707070"/>
<path d="M1073.36 139.201C1073.36 139.201 1080.02 142.588 1080.02 146.765C1080.02 150.942 1073.36 154.329 1073.36 154.329V139.201Z" fill="#707070"/>
<rect x="801.409" y="459.078" width="32.2812" height="118.922" fill="#A3A3A3"/>
<rect x="840.369" y="459.078" width="350.641" height="118.922" fill="#C4C4C4"/>
<rect x="1203.25" y="459.078" width="32.2812" height="118.922" fill="#A3A3A3"/>
<rect x="1007.34" y="143.988" width="12.2446" height="24.3942" rx="4" fill="#DE8E70"/>
<defs>
<linearGradient id="paint0_linear" x1="1014.2" y1="220.942" x2="1014.2" y2="191.395" gradientUnits="userSpaceOnUse">
<stop stop-color="#F3BE97"/>
<stop offset="0.5" stop-color="#EBB792"/>
<stop offset="1" stop-color="#7A4C4C"/>
</linearGradient>
</defs>
</svg>
